# xmcd CD database file
#
# Track frame offsets:
#	150
#	21395
#	49500
#	63111
#	100438
#	126236
#	144023
#	162298
#	195731
#	222958
#	259558
#	279423
#	315680
#	337229
#
# Disc length: 4754 seconds
#
# Revision: 1
# Processed by: cddbd v1.5.2PL0 Copyright (c) Steve Scherf et al.
# Submitted via: CDex 1.51
#
DISCID=cd12900e
DTITLE=Various Artist - Музыка снятия стресса
DYEAR=2011
DGENRE=New Age
TTITLE0=Музыка воды
TTITLE1=Тайны тропиков
TTITLE2=Волнение моря
TTITLE3=Мечты о лете
TTITLE4=Прохладный чистый ключ
TTITLE5=На бескрайних альпийских лугах
TTITLE6=Угасающий вечер
TTITLE7=Океанский прилив
TTITLE8=На необитаемом острове
TTITLE9=Южный закат
TTITLE10=Яркие краски природы
TTITLE11=Возле гранитных скал
TTITLE12=Пение китов
TTITLE13=Тёплый белый песок
EXTD=YEAR: 2011
EXTT0=
EXTT1=
EXTT2=
EXTT3=
EXTT4=
EXTT5=
EXTT6=
EXTT7=
EXTT8=
EXTT9=
EXTT10=
EXTT11=
EXTT12=
EXTT13=
PLAYORDER=
